<svg xmlns="http://www.w3.org/2000/svg" viewBox="0 0 64 64" role="img" aria-label="Skymouse">
  <rect width="64" height="64" rx="16" fill="#0A5C2E" />
  <path d="M19 17c0-3 2.2-5 5-5h16c3.2 0 5.8 2.6 5.8 5.8v22.1c0 3.4-2.8 6.1-6.1 6.1H26.2c-3.9 0-7-3.1-7-7V17Z" fill="#F5F7F6"/>
  <path d="M24 22h16a4 4 0 0 1 4 4v12.5c0 2.5-2 4.5-4.5 4.5H26.8a4.8 4.8 0 0 1-4.8-4.8V26a4 4 0 0 1 4-4Z" fill="#0F7B3E"/>
  <circle cx="39" cy="24" r="2" fill="#D4AF37"/>
  <path d="M32 34c5 0 10 3 13 9" stroke="#E86F14" stroke-width="2.5" stroke-linecap="round"/>
</svg>
