<?xml version="1.0" encoding="UTF-8" standalone="no"?>
<svg
   viewBox="0 0 800 200"
   width="800"
   height="200"
   version="1.1"
   id="svg11"
   sodipodi:docname="mouselogo_banner.svg"
   inkscape:export-filename="mouselogo_banner.png"
   inkscape:export-xdpi="96"
   inkscape:export-ydpi="96"
   inkscape:version="1.4.3 (1:1.4.3+202512261034+0d15f75042)"
   xmlns:inkscape="http://www.inkscape.org/namespaces/inkscape"
   xmlns:sodipodi="http://sodipodi.sourceforge.net/DTD/sodipodi-0.dtd"
   xmlns="http://www.w3.org/2000/svg"
   xmlns:svg="http://www.w3.org/2000/svg">
  <defs
     id="defs11" />
  <sodipodi:namedview
     id="namedview11"
     pagecolor="#ffffff"
     bordercolor="#666666"
     borderopacity="1.0"
     inkscape:showpageshadow="2"
     inkscape:pageopacity="0.0"
     inkscape:pagecheckerboard="0"
     inkscape:deskcolor="#d1d1d1"
     inkscape:zoom="0.5438294"
     inkscape:cx="231.69031"
     inkscape:cy="204.10813"
     inkscape:window-width="1920"
     inkscape:window-height="1048"
     inkscape:window-x="1920"
     inkscape:window-y="0"
     inkscape:window-maximized="1"
     inkscape:current-layer="svg11" />
  <!-- Background -->
  <!-- ================= ICON ================= -->
  <!-- ================= TEXT ================= -->
  <!-- IMPORTANT: Inter font required on system OR convert to outlines for print -->
  <g
     id="g2"
     transform="translate(-175.60586,-205.49467)">
    <g
       transform="matrix(0.35259063,0,0,0.35259063,195.88652,220.87292)"
       id="g10">
      <!-- Mouse body -->
      <rect
         x="0"
         y="0"
         width="360"
         height="480"
         rx="80"
         fill="#0a5c2e"
         id="rect2" />
      <!-- Top right (green) -->
      <path
         d="m 190,0 h 90 a 80,80 0 0 1 80,80 V 312 H 190 Z"
         fill="#0f7b3e"
         id="path2" />
      <!-- Top left (orange accent) -->
      <path
         d="M 0,80 A 80,80 0 0 1 80,0 h 90 V 312 H 0 Z"
         fill="#e86f14"
         id="path3" />
      <!-- Center spine -->
      <rect
         x="170"
         y="0"
         width="20"
         height="320"
         fill="#ffffff"
         id="rect3" />
      <!-- Divider -->
      <rect
         x="0"
         y="312"
         width="360"
         height="8"
         fill="#ffffff"
         id="rect4" />
      <!-- Scroll housing -->
      <rect
         x="140"
         y="70"
         width="80"
         height="150"
         rx="40"
         fill="#ffffff"
         id="rect5" />
      <!-- Scroll wheel -->
      <rect
         x="155"
         y="85"
         width="50"
         height="120"
         rx="25"
         fill="#d4af37"
         id="rect6" />
      <!-- Circuits -->
      <g
         stroke="#d4af37"
         stroke-width="10"
         fill="none"
         stroke-linecap="round"
         id="g8">
        <path
           d="M 180,460 V 360"
           id="path6" />
        <path
           d="m 118,460 v -62 q 0,-18 27,-18 h 20"
           id="path7" />
        <path
           d="m 242,460 v -62 q 0,-18 -27,-18 h -20"
           id="path8" />
      </g>
      <!-- Nodes -->
      <circle
         cx="180"
         cy="360"
         r="7"
         fill="#d4af37"
         id="circle8" />
      <circle
         cx="118"
         cy="398"
         r="7"
         fill="#d4af37"
         id="circle9" />
      <circle
         cx="242"
         cy="398"
         r="7"
         fill="#d4af37"
         id="circle10" />
    </g>
    <g
       id="g1">
      <path
         d="m 376.94625,307.07686 q -12.03125,0 -19.25,-5.45703 -7.17578,-5.45703 -7.34765,-16.54297 h 14.5664 q 0.25782,4.6836 3.4375,7.04688 3.22266,2.36328 8.42188,2.36328 4.72656,0 7.43359,-1.89062 2.70703,-1.9336 2.70703,-4.98438 0,-2.75 -2.57812,-4.33984 -2.53516,-1.63282 -7.77734,-2.83594 l -6.78907,-1.58984 q -8.29297,-1.89063 -13.01953,-6.1875 -4.72656,-4.29688 -4.72656,-11.51563 0,-5.92969 3.17969,-10.35547 3.22265,-4.46875 8.85156,-6.96094 5.62891,-2.49218 12.89062,-2.49218 7.4336,0 12.89063,2.53515 5.45703,2.49219 8.46484,7.00391 3.00782,4.46875 3.09375,10.39844 h -14.5664 q -0.30078,-3.48047 -2.83594,-5.41407 -2.53516,-1.93359 -7.08984,-1.93359 -4.55469,0 -6.875,1.76172 -2.32032,1.76172 -2.32032,4.42578 0,2.96484 2.57813,4.59766 2.57812,1.58984 6.875,2.53515 l 5.54297,1.28907 q 9.28125,2.0625 14.39453,6.74609 5.15625,4.68359 5.15625,12.375 0,9.10937 -6.70313,14.26562 -6.70312,5.15625 -18.60547,5.15625 z m 41.38672,-0.85937 v -64.02344 h 15.16797 v 15.72656 l -0.25781,15.46875 q 1.89062,-3.26562 4.125,-6.44531 2.23437,-3.22265 5.45703,-7.26172 l 14.26563,-17.48828 h 18.21875 l -23.20313,27.62891 24.10547,36.39453 h -17.83203 l -16.71485,-26.42578 -8.16406,9.23828 v 17.1875 z m 93.8086,0 v -23.20313 l -23.80469,-40.82031 h 17.78906 l 10.05469,19.63672 q 2.01953,3.91016 3.56641,8.25 1.5039,-4.33984 3.4375,-8.25 l 9.58203,-19.63672 h 17.70312 l -23.24609,40.82031 v 23.20313 z m 53.33203,0 v -64.02344 h 23.63281 l 8.16406,24.92188 q 0.64453,2.1914 1.46094,5.71484 0.85938,3.52344 1.71875,7.60547 0.85938,4.08203 1.63281,7.90625 0.73047,-3.82422 1.54688,-7.86328 0.85937,-4.08203 1.67578,-7.60547 0.85937,-3.56641 1.50391,-5.75781 l 8.03515,-24.92188 h 23.67578 v 64.02344 h -15.2539 v -27.58594 q 0,-2.44922 0.0859,-6.40234 0.12891,-3.9961 0.25782,-8.63672 0.1289,-4.64063 0.21484,-8.9375 -1.07422,4.55469 -2.27734,9.15234 -1.16016,4.59766 -2.23438,8.50782 -1.07422,3.86718 -1.84765,6.3164 l -9.10935,27.58594 h -12.67578 l -9.23828,-27.58594 q -0.73047,-2.36328 -1.80469,-6.10156 -1.07422,-3.73828 -2.27734,-8.16406 -1.16016,-4.46875 -2.23438,-8.98047 0.0859,4.21094 0.21485,8.67969 0.1289,4.46875 0.21484,8.33593 0.12891,3.82422 0.12891,6.23047 v 27.58594 z m 120.06255,0.85937 q -8.6368,0 -15.5547,-3.82421 -6.875,-3.82422 -10.9141,-11.17188 -4.0391,-7.34766 -4.0391,-17.83203 0,-10.57031 4.0391,-17.91797 4.0391,-7.34766 10.9141,-11.17187 6.9179,-3.82422 15.5547,-3.82422 8.5507,0 15.4257,3.82422 6.918,3.82421 10.9571,11.17187 4.039,7.34766 4.039,17.91797 0,10.52734 -4.039,17.875 -4.0391,7.34766 -10.9571,11.17187 -6.875,3.78125 -15.4257,3.78125 z m 0,-13.32031 q 6.9609,0 10.957,-4.98437 3.9961,-5.02735 3.9961,-14.52344 0,-9.53906 -3.9961,-14.56641 -3.9961,-5.02734 -10.957,-5.02734 -7.004,0 -11,5.02734 -3.9961,5.02735 -3.9961,14.56641 0,9.49609 3.9961,14.52344 3.996,4.98437 11,4.98437 z m 73.957,13.27735 q -8.1211,0 -14.1797,-2.87891 -6.0586,-2.92188 -9.4531,-8.20703 -3.3516,-5.32813 -3.3516,-12.46094 v -41.29297 h 15.168 v 40.04688 q 0,5.02734 3.2656,8.29297 3.2656,3.26562 8.5508,3.26562 5.3281,0 8.5937,-3.26562 3.2657,-3.26563 3.2657,-8.29297 v -40.04688 h 15.1679 v 41.29297 q 0,7.13281 -3.3945,12.46094 -3.3945,5.28515 -9.4961,8.20703 -6.0586,2.87891 -14.1367,2.87891 z m 69.7031,0.043 q -12.0312,0 -19.25,-5.45703 -7.1758,-5.45703 -7.3476,-16.54297 h 14.5664 q 0.2578,4.6836 3.4375,7.04688 3.2226,2.36328 8.4218,2.36328 4.7266,0 7.4336,-1.89062 2.7071,-1.9336 2.7071,-4.98438 0,-2.75 -2.5782,-4.33984 -2.5351,-1.63282 -7.7773,-2.83594 l -6.7891,-1.58984 q -8.2929,-1.89063 -13.0195,-6.1875 -4.7266,-4.29688 -4.7266,-11.51563 0,-5.92969 3.1797,-10.35547 3.2227,-4.46875 8.8516,-6.96094 5.6289,-2.49218 12.8906,-2.49218 7.4336,0 12.8906,2.53515 5.4571,2.49219 8.4649,7.00391 3.0078,4.46875 3.0937,10.39844 h -14.5664 q -0.3008,-3.48047 -2.8359,-5.41407 -2.5352,-1.93359 -7.0899,-1.93359 -4.5546,0 -6.875,1.76172 -2.3203,1.76172 -2.3203,4.42578 0,2.96484 2.5782,4.59766 2.5781,1.58984 6.875,2.53515 l 5.5429,1.28907 q 9.2813,2.0625 14.3946,6.74609 5.1562,4.68359 5.1562,12.375 0,9.10937 -6.7031,14.26562 -6.7031,5.15625 -18.6055,5.15625 z m 41.3867,-0.85941 v -64.02344 h 44.4297 v 12.375 h -29.2617 v 13.23438 h 26.9414 v 12.11718 h -26.9414 v 13.92188 h 29.2187 v 12.375 z"
         id="text10"
         style="font-weight:800;font-size:88px;font-family:Inter;letter-spacing:8;text-anchor:middle;fill:#1f2933"
         aria-label="SKYMOUSE" />
      <path
         d="m 358.40036,362.31678 h -8.05176 v -24.73633 h 8.28418 q 3.65234,0 6.25879,1.49414 2.60644,1.47754 4.00097,4.2334 1.39454,2.75586 1.39454,6.60742 0,3.86817 -1.41114,6.64063 -1.39453,2.77246 -4.06738,4.2666 -2.65625,1.49414 -6.4082,1.49414 z m -4.26661,-3.32031 h 4.05079 q 4.20019,0 6.29199,-2.34082 2.0918,-2.35742 2.0918,-6.74024 0,-4.36621 -2.0752,-6.69043 -2.05859,-2.32422 -6.10938,-2.32422 h -4.25 z m 25.46973,3.32031 v -18.56055 h 3.65235 v 18.56055 z m 1.84277,-21.39941 q -0.94628,0 -1.62695,-0.63086 -0.66406,-0.63086 -0.66406,-1.52735 0,-0.91308 0.66406,-1.54394 0.68067,-0.63086 1.62695,-0.63086 0.94629,0 1.62696,0.63086 0.68066,0.63086 0.68066,1.54394 0,0.89649 -0.68066,1.52735 -0.68067,0.63086 -1.62696,0.63086 z m 19.49317,28.7373 q -3.2207,0 -5.16309,-1.17871 -1.94238,-1.17871 -2.72265,-2.85547 l 3.05468,-1.44434 q 0.33204,0.53125 0.87989,1.11231 0.56445,0.59766 1.49414,1.01269 0.94629,0.41504 2.44043,0.41504 2.1084,0 3.43652,-1.01269 1.32813,-0.9961 1.32813,-3.1377 v -3.61914 h -0.31543 q -0.33204,0.61426 -0.92969,1.32813 -0.58106,0.71386 -1.64356,1.24511 -1.04589,0.51465 -2.73925,0.51465 -2.19141,0 -3.95118,-1.02929 -1.74316,-1.0293 -2.77246,-3.03809 -1.02929,-2.02539 -1.02929,-4.99707 0,-2.95508 1.01269,-5.06348 1.0293,-2.125 2.78906,-3.2539 1.75977,-1.12891 4.00098,-1.12891 1.70996,0 2.77246,0.58106 1.0791,0.56445 1.67676,1.32812 0.61426,0.76367 0.92969,1.34473 h 0.26562 v -3.02149 h 3.56934 v 18.82617 q 0,2.44043 -1.11231,4.00098 -1.1123,1.56055 -3.00488,2.30762 -1.89258,0.76367 -4.2666,0.76367 z m -0.0332,-10.6582 q 2.32421,0 3.55273,-1.61035 1.24512,-1.61036 1.24512,-4.46582 0,-2.78907 -1.22852,-4.53223 -1.21191,-1.75977 -3.56933,-1.75977 -1.61036,0 -2.70606,0.84668 -1.0791,0.83008 -1.62695,2.25782 -0.53125,1.41113 -0.53125,3.1875 0,2.72265 1.22851,4.39941 1.24512,1.67676 3.63575,1.67676 z m 18.33105,3.32031 v -18.56055 h 3.65234 v 18.56055 z m 1.84277,-21.39941 q -0.94629,0 -1.62695,-0.63086 -0.66406,-0.63086 -0.66406,-1.52735 0,-0.91308 0.66406,-1.54394 0.68066,-0.63086 1.62695,-0.63086 0.94629,0 1.62696,0.63086 0.68066,0.63086 0.68066,1.54394 0,0.89649 -0.68066,1.52735 -0.68067,0.63086 -1.62696,0.63086 z m 19.65918,2.83886 v 2.97168 h -3.70214 v 10.5752 q 0,1.1123 0.46484,1.64355 0.48144,0.51465 1.56055,0.51465 0.29882,0 0.74707,-0.0664 0.46484,-0.0664 0.79687,-0.13281 l 0.64746,2.92188 q -0.58105,0.19922 -1.26172,0.28222 -0.66406,0.0996 -1.29492,0.0996 -2.52344,0 -3.91797,-1.29492 -1.39453,-1.31152 -1.39453,-3.66894 v -10.87403 h -2.70605 v -2.97168 h 2.70605 v -4.41601 h 3.65235 v 4.41601 z m 13.99805,18.97559 q -1.77637,0 -3.2041,-0.64746 -1.41113,-0.66406 -2.24121,-1.92578 -0.83008,-1.26172 -0.83008,-3.08789 0,-1.57715 0.61426,-2.58985 0.61426,-1.02929 1.64355,-1.61035 1.0293,-0.59766 2.29102,-0.89648 1.27832,-0.29883 2.58984,-0.44825 2.45703,-0.28222 3.56934,-0.48144 1.1123,-0.21582 1.1123,-1.19531 v -0.0996 q 0,-1.54395 -0.91308,-2.39063 -0.89649,-0.86328 -2.63965,-0.86328 -1.82617,0 -2.87207,0.79688 -1.0459,0.79687 -1.42774,1.74316 l -3.43652,-0.89648 q 0.63086,-1.66016 1.80957,-2.67286 1.17871,-1.01269 2.68945,-1.47754 1.52735,-0.46484 3.1875,-0.46484 1.11231,0 2.37403,0.26563 1.26172,0.26562 2.37402,0.96289 1.1123,0.68066 1.80957,1.95898 0.69727,1.27832 0.69727,3.28711 v 12.31835 h -3.53614 v -2.54004 h -0.18261 q -0.54786,1.0957 -1.89258,2.02539 -1.32813,0.92969 -3.58594,0.92969 z m 0.81348,-2.93848 q 1.47754,0 2.54004,-0.58105 1.0625,-0.59766 1.62695,-1.54395 0.58105,-0.94629 0.58105,-2.04199 v -2.37402 q -0.26562,0.26562 -1.1455,0.46484 -0.86329,0.18262 -1.82618,0.31543 -0.96289,0.13281 -1.52734,0.19922 -1.54394,0.21582 -2.65625,0.84668 -1.0957,0.61426 -1.0957,2.04199 0,1.32813 0.97949,2.00879 0.99609,0.66406 2.52344,0.66406 z m 21.95019,-22.21289 v 24.73633 h -3.65234 v -24.73633 z m 32.56153,25.15137 q -4.167,0 -6.64063,-1.94238 -2.47363,-1.95899 -2.63965,-5.34571 h 3.80176 q 0.16602,2.02539 1.74316,3.00489 1.57715,0.96289 3.71875,0.96289 2.35743,0 3.90137,-1.09571 1.54395,-1.0957 1.54395,-2.88867 0,-1.61035 -1.36133,-2.39062 -1.34473,-0.79688 -3.33692,-1.32813 l -2.88867,-0.79687 q -3.03808,-0.81348 -4.74804,-2.40723 -1.69336,-1.59375 -1.69336,-4.13379 0,-2.1416 1.1455,-3.73535 1.16211,-1.61035 3.1377,-2.49024 1.99219,-0.89648 4.48242,-0.89648 2.54004,0 4.46582,0.89648 1.94238,0.87989 3.03809,2.44043 1.1123,1.54395 1.16211,3.50293 h -3.68555 q -0.18262,-1.69336 -1.57715,-2.62304 -1.37793,-0.92969 -3.48633,-0.92969 -2.24121,0 -3.56933,1.0293 -1.32813,1.01269 -1.32813,2.58984 0,1.17871 0.71387,1.90918 0.71387,0.71387 1.74316,1.14551 1.0459,0.41504 1.99219,0.66406 l 2.40723,0.63086 q 1.17871,0.29883 2.42383,0.81348 1.26171,0.49804 2.32421,1.31152 1.0625,0.79687 1.70997,1.99219 0.66406,1.17871 0.66406,2.85547 0,2.09179 -1.0791,3.73535 -1.0791,1.64355 -3.1377,2.58984 -2.04199,0.92969 -4.94726,0.92969 z m 18.13183,6.25879 0.89649,-2.97168 0.41504,0.0996 q 1.41113,0.38183 2.39062,-0.0996 0.99609,-0.46485 1.51074,-2.25781 l 0.39844,-1.36133 -7.05566,-18.64356 h 3.95117 l 3.66894,10.542 q 0.41504,1.22851 0.73047,2.42382 0.31543,1.19532 0.61426,2.39063 0.31543,-1.19531 0.64746,-2.39063 0.33203,-1.21191 0.76367,-2.42382 l 3.73535,-10.542 h 3.91797 l -8.06836,21.13379 q -0.84668,2.22461 -2.29101,3.35352 -1.42774,1.14551 -3.66895,1.14551 -0.86328,0 -1.54394,-0.13282 -0.66407,-0.11621 -1.0127,-0.26562 z m 31.46289,-6.29199 q -3.02148,0 -5.01367,-1.29493 -1.97559,-1.31152 -2.47363,-3.78515 l 3.43652,-0.71387 q 0.74707,2.83887 4.08399,2.83887 1.77636,0 2.80566,-0.73047 1.0459,-0.74707 1.0459,-1.77637 0,-1.75976 -2.60645,-2.34082 l -3.12109,-0.71387 q -5.11328,-1.1455 -5.11328,-5.12988 0,-1.66015 0.91308,-2.90527 0.92969,-1.24512 2.54004,-1.92578 1.62696,-0.69727 3.73535,-0.69727 3.00489,0 4.71485,1.29492 1.70996,1.27832 2.30762,3.33692 l -3.27051,0.71386 q -0.34864,-0.97949 -1.21192,-1.70996 -0.86328,-0.74707 -2.50683,-0.74707 -1.51074,0 -2.52344,0.68067 -1.0127,0.68066 -1.0127,1.72656 0,0.92969 0.66407,1.51074 0.68066,0.56445 2.208,0.91309 l 2.98829,0.66406 q 5.06347,1.14551 5.06347,5.01367 0,1.69336 -0.97949,3.00488 -0.96289,1.29493 -2.68945,2.042 -1.72657,0.73047 -3.98438,0.73047 z m 24.58985,-18.94239 v 2.97168 h -3.70215 v 10.5752 q 0,1.1123 0.46484,1.64355 0.48145,0.51465 1.56055,0.51465 0.29883,0 0.74707,-0.0664 0.46484,-0.0664 0.79687,-0.13281 l 0.64746,2.92188 q -0.58105,0.19922 -1.26171,0.28222 -0.66407,0.0996 -1.29493,0.0996 -2.52343,0 -3.91796,-1.29492 -1.39454,-1.31152 -1.39454,-3.66894 v -10.87403 h -2.70605 v -2.97168 h 2.70605 v -4.41601 h 3.65235 v 4.41601 z m 16.30566,18.94239 q -2.73926,0 -4.73145,-1.17872 -1.99218,-1.17871 -3.07128,-3.32031 -1.0625,-2.1416 -1.0625,-5.03027 0,-2.85547 1.04589,-5.03027 1.0625,-2.17481 2.98829,-3.38672 1.92578,-1.22852 4.51562,-1.22852 2.1084,0 4.00098,0.94629 1.90918,0.92969 3.08789,2.98828 1.19531,2.04199 1.19531,5.39551 v 1.29492 h -13.16504 q 0.0996,2.68945 1.52734,4.11719 1.42774,1.41113 3.70215,1.41113 1.52735,0 2.62305,-0.66406 1.1123,-0.66406 1.59375,-1.95899 l 3.43652,0.81348 q -0.66406,2.17481 -2.68945,3.50293 -2.02539,1.32813 -4.99707,1.32813 z m -5.17969,-11.27247 h 9.5293 q -0.19922,-2.1914 -1.37793,-3.53613 -1.16211,-1.34472 -3.27051,-1.34472 -2.1914,0 -3.46972,1.44433 -1.26172,1.42774 -1.41114,3.43652 z m 22.14942,10.89063 v -18.56055 h 3.46972 l 0.083,3.46973 q 0.71387,-1.92578 2.1416,-2.85547 1.42774,-0.92969 3.08789,-0.92969 1.80957,0 3.00489,1.0293 1.19531,1.0293 1.74316,2.87207 0.69727,-1.87598 2.29102,-2.88867 1.61035,-1.0127 3.58593,-1.0127 1.64356,0 2.97168,0.71387 1.32813,0.71387 2.1084,2.125 0.79688,1.41113 0.79688,3.51953 v 12.51758 h -3.65235 v -12.15234 q 0,-1.85938 -1.0459,-2.68946 -1.02929,-0.83008 -2.44043,-0.83008 -1.72656,0 -2.72265,1.0625 -0.97949,1.0625 -0.97949,2.72266 v 11.88672 h -3.60254 v -12.38477 q 0,-1.49414 -0.96289,-2.39062 -0.94629,-0.89649 -2.42383,-0.89649 -1.52735,0 -2.67285,1.0625 -1.12891,1.0459 -1.12891,3.07129 v 11.53809 z m 41.85547,0.38184 q -3.02149,0 -5.01368,-1.29493 -1.97558,-1.31152 -2.47363,-3.78515 l 3.43652,-0.71387 q 0.74707,2.83887 4.08399,2.83887 1.77637,0 2.80566,-0.73047 1.0459,-0.74707 1.0459,-1.77637 0,-1.75976 -2.60644,-2.34082 l -3.1211,-0.71387 q -5.11328,-1.1455 -5.11328,-5.12988 0,-1.66015 0.91309,-2.90527 0.92968,-1.24512 2.54004,-1.92578 1.62695,-0.69727 3.73535,-0.69727 3.00488,0 4.71484,1.29492 1.70996,1.27832 2.30762,3.33692 l -3.27051,0.71386 q -0.34863,-0.97949 -1.21191,-1.70996 -0.86328,-0.74707 -2.50684,-0.74707 -1.51074,0 -2.52344,0.68067 -1.01269,0.68066 -1.01269,1.72656 0,0.92969 0.66406,1.51074 0.68066,0.56445 2.20801,0.91309 l 2.98828,0.66406 q 5.06348,1.14551 5.06348,5.01367 0,1.69336 -0.9795,3.00488 -0.96289,1.29493 -2.68945,2.042 -1.72656,0.73047 -3.98437,0.73047 z m 19.3604,-0.13282 q -1.0293,0 -1.7432,-0.69726 -0.7139,-0.71387 -0.7139,-1.74317 0,-1.02929 0.7139,-1.74316 0.7139,-0.71387 1.7432,-0.71387 1.0292,0 1.7265,0.71387 0.7139,0.71387 0.7139,1.74316 0,1.0293 -0.7139,1.74317 -0.6973,0.69726 -1.7265,0.69726 z m 26.6015,-0.24902 v -24.73633 h 8.8652 q 2.8555,0 4.7647,0.9961 1.9092,0.99609 2.8555,2.75585 0.9463,1.74317 0.9463,4.01758 0,2.49024 -1.129,4.31641 -1.1289,1.80957 -3.3867,2.65625 l 5.4453,9.99414 h -4.2998 l -5.0136,-9.34668 q -0.1,0 -0.2159,0 h -5.0468 v 9.34668 z m 3.7852,-12.58398 h 4.6816 q 2.7227,0 3.918,-1.14551 1.2119,-1.16211 1.2119,-3.23731 0,-2.09179 -1.2119,-3.30371 -1.2119,-1.22851 -3.9512,-1.22851 h -4.6484 z m 30.5,12.96582 q -2.7393,0 -4.7315,-1.17872 -1.9922,-1.17871 -3.0713,-3.32031 -1.0625,-2.1416 -1.0625,-5.03027 0,-2.85547 1.0459,-5.03027 1.0625,-2.17481 2.9883,-3.38672 1.9258,-1.22852 4.5156,-1.22852 2.1084,0 4.001,0.94629 1.9092,0.92969 3.0879,2.98828 1.1953,2.04199 1.1953,5.39551 v 1.29492 h -13.165 q 0.1,2.68945 1.5273,4.11719 1.4278,1.41113 3.7022,1.41113 1.5273,0 2.623,-0.66406 1.1123,-0.66406 1.5938,-1.95899 l 3.4365,0.81348 q -0.6641,2.17481 -2.6895,3.50293 -2.0253,1.32813 -4.997,1.32813 z m -5.1797,-11.27247 h 9.5293 q -0.1992,-2.1914 -1.3779,-3.53613 -1.1622,-1.34472 -3.2706,-1.34472 -2.1914,0 -3.4697,1.44433 -1.2617,1.42774 -1.4111,3.43652 z m 27.6777,11.30567 q -1.7763,0 -3.2041,-0.64746 -1.4111,-0.66406 -2.2412,-1.92578 -0.8301,-1.26172 -0.8301,-3.08789 0,-1.57715 0.6143,-2.58985 0.6142,-1.02929 1.6435,-1.61035 1.0293,-0.59766 2.2911,-0.89648 1.2783,-0.29883 2.5898,-0.44825 2.457,-0.28222 3.5693,-0.48144 1.1123,-0.21582 1.1123,-1.19531 v -0.0996 q 0,-1.54395 -0.913,-2.39063 -0.8965,-0.86328 -2.6397,-0.86328 -1.8262,0 -2.8721,0.79688 -1.0459,0.79687 -1.4277,1.74316 l -3.4365,-0.89648 q 0.6308,-1.66016 1.8095,-2.67286 1.1788,-1.01269 2.6895,-1.47754 1.5273,-0.46484 3.1875,-0.46484 1.1123,0 2.374,0.26563 1.2617,0.26562 2.374,0.96289 1.1124,0.68066 1.8096,1.95898 0.6973,1.27832 0.6973,3.28711 v 12.31835 h -3.5361 v -2.54004 h -0.1827 q -0.5478,1.0957 -1.8925,2.02539 -1.3282,0.92969 -3.586,0.92969 z m 0.8135,-2.93848 q 1.4775,0 2.54,-0.58105 1.0625,-0.59766 1.627,-1.54395 0.581,-0.94629 0.581,-2.04199 v -2.37402 q -0.2656,0.26562 -1.1455,0.46484 -0.8632,0.18262 -1.8261,0.31543 -0.9629,0.13281 -1.5274,0.19922 -1.5439,0.21582 -2.6562,0.84668 -1.0957,0.61426 -1.0957,2.04199 0,1.32813 0.9795,2.00879 0.9961,0.66406 2.5234,0.66406 z m 21.9502,-22.21289 v 24.73633 h -3.6524 v -24.73633 z m 28.0459,0 v 24.73633 h -3.7852 v -24.73633 z m 10.1963,24.73633 v -18.56055 h 3.4697 l 0.083,3.46973 q 0.7139,-1.92578 2.1416,-2.85547 1.4277,-0.92969 3.0879,-0.92969 1.8096,0 3.0049,1.0293 1.1953,1.0293 1.7431,2.87207 0.6973,-1.87598 2.2911,-2.88867 1.6103,-1.0127 3.5859,-1.0127 1.6435,0 2.9717,0.71387 1.3281,0.71387 2.1084,2.125 0.7968,1.41113 0.7968,3.51953 v 12.51758 h -3.6523 v -12.15234 q 0,-1.85938 -1.0459,-2.68946 -1.0293,-0.83008 -2.4404,-0.83008 -1.7266,0 -2.7227,1.0625 -0.9795,1.0625 -0.9795,2.72266 v 11.88672 h -3.6025 v -12.38477 q 0,-1.49414 -0.9629,-2.39062 -0.9463,-0.89649 -2.4238,-0.89649 -1.5274,0 -2.6729,1.0625 -1.1289,1.0459 -1.1289,3.07129 v 11.53809 z m 35.1982,6.93945 v -25.5 h 3.5528 v 3.02149 h 0.2988 q 0.3154,-0.56446 0.8965,-1.32813 0.5976,-0.78027 1.6601,-1.34472 1.0625,-0.58106 2.8057,-0.58106 2.2246,0 3.9678,1.12891 1.7597,1.1289 2.7724,3.27051 1.0127,2.1416 1.0127,5.16308 0,2.98828 -0.9961,5.14649 -0.9961,2.1582 -2.7558,3.30371 -1.7432,1.1455 -4.001,1.1455 -1.6934,0 -2.7559,-0.56445 -1.0625,-0.58105 -1.6767,-1.34473 -0.5977,-0.76367 -0.9297,-1.36132 h -0.1992 v 9.84472 z m 8.4004,-9.67871 q 1.5938,0 2.6563,-0.86328 1.0791,-0.86328 1.6269,-2.34082 0.5479,-1.47754 0.5479,-3.32031 0,-1.82617 -0.5479,-3.27051 -0.5312,-1.46094 -1.6103,-2.30762 -1.0625,-0.84668 -2.6729,-0.84668 -2.3574,0 -3.5859,1.77637 -1.2285,1.75977 -1.2285,4.64844 0,2.90527 1.2451,4.71484 1.2451,1.80957 3.5693,1.80957 z m 23.14551,3.1543 q -1.77631,0 -3.20411,-0.64746 -1.4111,-0.66406 -2.2412,-1.92578 -0.8301,-1.26172 -0.8301,-3.08789 0,-1.57715 0.6143,-2.58985 0.6142,-1.02929 1.6435,-1.61035 1.0293,-0.59766 2.2911,-0.89648 1.2783,-0.29883 2.58981,-0.44825 2.457,-0.28222 3.5693,-0.48144 1.1123,-0.21582 1.1123,-1.19531 v -0.0996 q 0,-1.54395 -0.913,-2.39063 -0.8965,-0.86328 -2.6397,-0.86328 -1.8262,0 -2.87211,0.79688 -1.0459,0.79687 -1.4277,1.74316 l -3.4365,-0.89648 q 0.6308,-1.66016 1.8095,-2.67286 1.1788,-1.01269 2.6895,-1.47754 1.52731,-0.46484 3.18751,-0.46484 1.1123,0 2.374,0.26563 1.2617,0.26562 2.374,0.96289 1.1124,0.68066 1.8096,1.95898 0.6973,1.27832 0.6973,3.28711 v 12.31835 h -3.5361 v -2.54004 h -0.1827 q -0.5478,1.0957 -1.8925,2.02539 -1.3282,0.92969 -3.586,0.92969 z m 0.8135,-2.93848 q 1.4775,0 2.54,-0.58105 1.0625,-0.59766 1.627,-1.54395 0.581,-0.94629 0.581,-2.04199 v -2.37402 q -0.2656,0.26562 -1.1455,0.46484 -0.8632,0.18262 -1.8261,0.31543 -0.9629,0.13281 -1.5274,0.19922 -1.54391,0.21582 -2.65621,0.84668 -1.0957,0.61426 -1.0957,2.04199 0,1.32813 0.9795,2.00879 0.9961,0.66406 2.52341,0.66406 z m 26.10063,2.90528 q -2.62313,0 -4.56543,-1.19532 -1.9424,-1.19531 -3.0215,-3.33691 -1.0791,-2.1582 -1.0791,-5.03027 0,-2.88868 1.0791,-5.04688 1.0791,-2.1748 3.0215,-3.37012 1.9423,-1.19531 4.56543,-1.19531 2.88867,0 4.98037,1.46094 2.1084,1.44433 2.7891,4.01758 l -3.4697,0.83007 q -0.3819,-1.44433 -1.4942,-2.32421 -1.0957,-0.89649 -2.78897,-0.89649 -1.67683,0 -2.78913,0.87988 -1.0957,0.87989 -1.6435,2.37403 -0.5313,1.47754 -0.5313,3.27051 0,1.77636 0.5313,3.2539 0.5478,1.46094 1.6435,2.34082 1.1123,0.87989 2.78913,0.87989 1.72647,0 2.85547,-0.91309 1.1289,-0.92969 1.4941,-2.44043 l 3.4531,0.83008 q -0.6806,2.62304 -2.789,4.11719 -2.1084,1.49414 -5.03027,1.49414 z m 24.75577,-18.94239 v 2.97168 h -3.7021 v 10.5752 q 0,1.1123 0.4648,1.64355 0.4815,0.51465 1.5606,0.51465 0.2988,0 0.7471,-0.0664 0.4648,-0.0664 0.7968,-0.13281 l 0.6475,2.92188 q -0.5811,0.19922 -1.2617,0.28222 -0.6641,0.0996 -1.295,0.0996 -2.5234,0 -3.9179,-1.29492 -1.3946,-1.31152 -1.3946,-3.66894 v -10.87403 h -2.706 v -2.97168 h 2.706 v -4.41601 h 3.6524 v 4.41601 z m 11.3418,18.80957 q -1.0293,0 -1.7431,-0.69726 -0.7139,-0.71387 -0.7139,-1.74317 0,-1.02929 0.7139,-1.74316 0.7138,-0.71387 1.7431,-0.71387 1.0293,0 1.7266,0.71387 0.7139,0.71387 0.7139,1.74316 0,1.0293 -0.7139,1.74317 -0.6973,0.69726 -1.7266,0.69726 z"
         id="text11"
         style="font-weight:500;font-size:34px;font-family:Inter;letter-spacing:5;text-anchor:middle;opacity:0.7744;fill:#1f2933"
         aria-label="Digital Systems. Real Impact." />
    </g>
  </g>
</svg>
