<svg xmlns="http://www.w3.org/2000/svg" viewBox="0 0 1200 630" role="img" aria-label="Skymouse">
  <rect width="1200" height="630" fill="#F5F7F6" />
  <rect x="72" y="72" width="1056" height="486" rx="42" fill="#FFFFFF" stroke="#D9E1DC" />
  <path d="M172 170c0-27 22-49 49-49h116c31 0 57 26 57 57v153c0 34-27 61-61 61H227c-40 0-73-33-73-73V170Z" fill="#0A5C2E"/>
  <path d="M208 214h125c21 0 38 17 38 38v103c0 17-14 31-31 31H225c-24 0-43-19-43-43V232c0-10 8-18 18-18Z" fill="#F5F7F6"/>
  <circle cx="331" cy="210" r="14" fill="#D4AF37"/>
  <path d="M258 317c41 0 81 23 105 64" stroke="#E86F14" stroke-width="14" stroke-linecap="round"/>
  <text x="448" y="236" fill="#1F2933" font-family="Inter, Arial, sans-serif" font-size="44" font-weight="700">Skymouse</text>
  <text x="448" y="294" fill="#0F7B3E" font-family="Inter, Arial, sans-serif" font-size="24" font-weight="600" letter-spacing="2">DIGITAL SYSTEMS. REAL IMPACT.</text>
  <text x="448" y="366" fill="#5E6B64" font-family="Inter, Arial, sans-serif" font-size="28">Governance platforms, enterprise systems and managed infrastructure.</text>
</svg>
