<?xml version="1.0" encoding="UTF-8" standalone="no"?>
<svg
   viewBox="0 0 604.97656 707.33789"
   width="604.97656"
   height="707.33789"
   version="1.1"
   id="svg11"
   sodipodi:docname="skymouse_logo.svg"
   inkscape:export-filename="skymouse_logo.png"
   inkscape:export-xdpi="96"
   inkscape:export-ydpi="96"
   inkscape:version="1.4.4 (1:1.4.4+202605061432+dcaf3e7d9e)"
   xmlns:inkscape="http://www.inkscape.org/namespaces/inkscape"
   xmlns:sodipodi="http://sodipodi.sourceforge.net/DTD/sodipodi-0.dtd"
   xmlns="http://www.w3.org/2000/svg"
   xmlns:svg="http://www.w3.org/2000/svg">
  <defs
     id="defs11" />
  <sodipodi:namedview
     id="namedview11"
     pagecolor="#ffffff"
     bordercolor="#666666"
     borderopacity="1.0"
     inkscape:showpageshadow="2"
     inkscape:pageopacity="0.0"
     inkscape:pagecheckerboard="0"
     inkscape:deskcolor="#d1d1d1"
     inkscape:zoom="0.76909091"
     inkscape:cx="302.95508"
     inkscape:cy="326.35934"
     inkscape:window-width="1920"
     inkscape:window-height="1048"
     inkscape:window-x="1920"
     inkscape:window-y="0"
     inkscape:window-maximized="1"
     inkscape:current-layer="svg11" />
  <!-- Background -->
  <!-- ================= ICON ================= -->
  <g
     transform="translate(122.48828)"
     id="g10">
    <!-- Mouse body -->
    <rect
       x="0"
       y="0"
       width="360"
       height="480"
       rx="80"
       fill="#0a5c2e"
       id="rect2" />
    <!-- Top right (green) -->
    <path
       d="m 190,0 h 90 a 80,80 0 0 1 80,80 V 312 H 190 Z"
       fill="#0f7b3e"
       id="path2" />
    <!-- Top left (orange accent) -->
    <path
       d="M 0,80 A 80,80 0 0 1 80,0 h 90 V 312 H 0 Z"
       fill="#e86f14"
       id="path3" />
    <!-- Center spine -->
    <rect
       x="170"
       y="0"
       width="20"
       height="320"
       fill="#ffffff"
       id="rect3" />
    <!-- Divider -->
    <rect
       x="0"
       y="312"
       width="360"
       height="8"
       fill="#ffffff"
       id="rect4" />
    <!-- Scroll housing -->
    <rect
       x="140"
       y="70"
       width="80"
       height="150"
       rx="40"
       fill="#ffffff"
       id="rect5" />
    <!-- Scroll wheel -->
    <rect
       x="155"
       y="85"
       width="50"
       height="120"
       rx="25"
       fill="#d4af37"
       id="rect6" />
    <!-- Circuits -->
    <g
       stroke="#d4af37"
       stroke-width="10"
       fill="none"
       stroke-linecap="round"
       id="g8">
      <path
         d="M 180,460 V 360"
         id="path6" />
      <path
         d="m 118,460 v -62 q 0,-18 27,-18 h 20"
         id="path7" />
      <path
         d="m 242,460 v -62 q 0,-18 -27,-18 h -20"
         id="path8" />
    </g>
    <!-- Nodes -->
    <circle
       cx="180"
       cy="360"
       r="7"
       fill="#d4af37"
       id="circle8" />
    <circle
       cx="118"
       cy="398"
       r="7"
       fill="#d4af37"
       id="circle9" />
    <circle
       cx="242"
       cy="398"
       r="7"
       fill="#d4af37"
       id="circle10" />
  </g>
  <!-- ================= TEXT ================= -->
  <!-- IMPORTANT: Inter font required on system OR convert to outlines for print -->
  <path
     d="m 46.7539,640.85937 q -12.03125,0 -19.25,-5.45703 -7.17578,-5.45703 -7.34765,-16.54297 h 14.5664 q 0.25782,4.6836 3.4375,7.04688 3.22266,2.36328 8.42188,2.36328 4.72656,0 7.43359,-1.89062 2.70703,-1.9336 2.70703,-4.98438 0,-2.75 -2.57812,-4.33984 -2.53516,-1.63282 -7.77734,-2.83594 l -6.78907,-1.58984 q -8.29297,-1.89063 -13.01953,-6.1875 -4.72656,-4.29688 -4.72656,-11.51563 0,-5.92969 3.17969,-10.35547 3.22265,-4.46875 8.85156,-6.96094 5.62891,-2.49218 12.89062,-2.49218 7.4336,0 12.89063,2.53515 5.45703,2.49219 8.46484,7.00391 3.00782,4.46875 3.09375,10.39844 h -14.5664 q -0.30078,-3.48047 -2.83594,-5.41407 -2.53516,-1.93359 -7.08984,-1.93359 -4.55469,0 -6.875,1.76172 -2.32032,1.76172 -2.32032,4.42578 0,2.96484 2.57813,4.59766 2.57812,1.58984 6.875,2.53515 l 5.54297,1.28907 q 9.28125,2.0625 14.39453,6.74609 5.15625,4.68359 5.15625,12.375 0,9.10937 -6.70313,14.26562 -6.70312,5.15625 -18.60547,5.15625 z M 88.14062,640 v -64.02344 h 15.16797 v 15.72656 l -0.25781,15.46875 q 1.89062,-3.26562 4.125,-6.44531 2.23437,-3.22265 5.45703,-7.26172 l 14.26563,-17.48828 h 18.21875 L 121.91406,603.60547 146.01953,640 H 128.1875 l -16.71485,-26.42578 -8.16406,9.23828 V 640 Z m 93.8086,0 v -23.20313 l -23.80469,-40.82031 h 17.78906 l 10.05469,19.63672 q 2.01953,3.91016 3.56641,8.25 1.5039,-4.33984 3.4375,-8.25 l 9.58203,-19.63672 h 17.70312 l -23.24609,40.82031 V 640 Z m 53.33203,0 v -64.02344 h 23.63281 l 8.16406,24.92188 q 0.64453,2.1914 1.46094,5.71484 0.85938,3.52344 1.71875,7.60547 0.85938,4.08203 1.63281,7.90625 0.73047,-3.82422 1.54688,-7.86328 0.85937,-4.08203 1.67578,-7.60547 0.85937,-3.56641 1.50391,-5.75781 l 8.03515,-24.92188 h 23.67578 V 640 h -15.2539 v -27.58594 q 0,-2.44922 0.0859,-6.40234 0.12891,-3.9961 0.25782,-8.63672 0.1289,-4.64063 0.21484,-8.9375 -1.07422,4.55469 -2.27734,9.15234 -1.16016,4.59766 -2.23438,8.50782 -1.07422,3.86718 -1.84765,6.3164 L 278.16406,640 H 265.48828 L 256.25,612.41406 q -0.73047,-2.36328 -1.80469,-6.10156 -1.07422,-3.73828 -2.27734,-8.16406 -1.16016,-4.46875 -2.23438,-8.98047 0.0859,4.21094 0.21485,8.67969 0.1289,4.46875 0.21484,8.33593 0.12891,3.82422 0.12891,6.23047 V 640 Z m 120.0625,0.85937 q -8.63672,0 -15.55469,-3.82421 -6.875,-3.82422 -10.91406,-11.17188 -4.03906,-7.34766 -4.03906,-17.83203 0,-10.57031 4.03906,-17.91797 4.03906,-7.34766 10.91406,-11.17187 6.91797,-3.82422 15.55469,-3.82422 8.55078,0 15.42578,3.82422 6.91797,3.82421 10.95703,11.17187 4.03906,7.34766 4.03906,17.91797 0,10.52734 -4.03906,17.875 -4.03906,7.34766 -10.95703,11.17187 -6.875,3.78125 -15.42578,3.78125 z m 0,-13.32031 q 6.96094,0 10.95703,-4.98437 3.99609,-5.02735 3.99609,-14.52344 0,-9.53906 -3.99609,-14.56641 -3.99609,-5.02734 -10.95703,-5.02734 -7.00391,0 -11,5.02734 -3.9961,5.02735 -3.9961,14.56641 0,9.49609 3.9961,14.52344 3.99609,4.98437 11,4.98437 z m 73.95703,13.27735 q -8.12109,0 -14.17969,-2.87891 -6.05859,-2.92188 -9.45312,-8.20703 -3.35157,-5.32813 -3.35157,-12.46094 v -41.29297 h 15.16797 v 40.04688 q 0,5.02734 3.26563,8.29297 3.26562,3.26562 8.55078,3.26562 5.32812,0 8.59375,-3.26562 3.26562,-3.26563 3.26562,-8.29297 v -40.04688 h 15.16797 v 41.29297 q 0,7.13281 -3.39453,12.46094 -3.39453,5.28515 -9.49609,8.20703 -6.0586,2.87891 -14.13672,2.87891 z m 69.70312,0.043 q -12.03125,0 -19.25,-5.45703 -7.17578,-5.45703 -7.34765,-16.54297 h 14.5664 q 0.25782,4.6836 3.4375,7.04688 3.22266,2.36328 8.42188,2.36328 4.72656,0 7.43359,-1.89062 2.70703,-1.9336 2.70703,-4.98438 0,-2.75 -2.57812,-4.33984 -2.53516,-1.63282 -7.77734,-2.83594 l -6.78907,-1.58984 q -8.29297,-1.89063 -13.01953,-6.1875 -4.72656,-4.29688 -4.72656,-11.51563 0,-5.92969 3.17969,-10.35547 3.22265,-4.46875 8.85156,-6.96094 5.62891,-2.49218 12.89062,-2.49218 7.4336,0 12.89063,2.53515 5.45703,2.49219 8.46484,7.00391 3.00782,4.46875 3.09375,10.39844 h -14.5664 q -0.30078,-3.48047 -2.83594,-5.41407 -2.53516,-1.93359 -7.08984,-1.93359 -4.55469,0 -6.875,1.76172 -2.32032,1.76172 -2.32032,4.42578 0,2.96484 2.57813,4.59766 2.57812,1.58984 6.875,2.53515 l 5.54297,1.28907 q 9.28125,2.0625 14.39453,6.74609 5.15625,4.68359 5.15625,12.375 0,9.10937 -6.70313,14.26562 -6.70312,5.15625 -18.60547,5.15625 z M 540.39062,640 v -64.02344 h 44.42969 v 12.375 h -29.26172 v 13.23438 H 582.5 v 12.11718 H 555.55859 V 627.625 h 29.21875 V 640 Z"
     id="text10"
     style="font-weight:800;font-size:88px;font-family:Inter;letter-spacing:8;text-anchor:middle;fill:#1f2933"
     aria-label="SKYMOUSE" />
  <path
     d="M 8.05176,700 H 0 v -24.73633 h 8.28418 q 3.65234,0 6.25879,1.49414 2.60644,1.47754 4.00097,4.2334 1.39454,2.75586 1.39454,6.60742 0,3.86817 -1.41114,6.64063 -1.39453,2.77246 -4.06738,4.2666 Q 11.80371,700 8.05176,700 Z m -4.26661,-3.32031 h 4.05079 q 4.20019,0 6.29199,-2.34082 2.0918,-2.35742 2.0918,-6.74024 0,-4.36621 -2.0752,-6.69043 -2.05859,-2.32422 -6.10938,-2.32422 h -4.25 z M 29.25488,700 v -18.56055 h 3.65235 V 700 Z m 1.84277,-21.39941 q -0.94628,0 -1.62695,-0.63086 -0.66406,-0.63086 -0.66406,-1.52735 0,-0.91308 0.66406,-1.54394 0.68067,-0.63086 1.62695,-0.63086 0.94629,0 1.62696,0.63086 0.68066,0.63086 0.68066,1.54394 0,0.89649 -0.68066,1.52735 -0.68067,0.63086 -1.62696,0.63086 z m 19.49317,28.7373 q -3.2207,0 -5.16309,-1.17871 -1.94238,-1.17871 -2.72265,-2.85547 l 3.05468,-1.44434 q 0.33204,0.53125 0.87989,1.11231 0.56445,0.59766 1.49414,1.01269 0.94629,0.41504 2.44043,0.41504 2.1084,0 3.43652,-1.01269 1.32813,-0.9961 1.32813,-3.1377 v -3.61914 h -0.31543 q -0.33204,0.61426 -0.92969,1.32813 -0.58106,0.71386 -1.64356,1.24511 -1.04589,0.51465 -2.73925,0.51465 -2.19141,0 -3.95118,-1.02929 -1.74316,-1.0293 -2.77246,-3.03809 -1.02929,-2.02539 -1.02929,-4.99707 0,-2.95508 1.01269,-5.06348 1.0293,-2.125 2.78906,-3.2539 1.75977,-1.12891 4.00098,-1.12891 1.70996,0 2.77246,0.58106 1.0791,0.56445 1.67676,1.32812 0.61426,0.76367 0.92969,1.34473 h 0.26562 v -3.02149 h 3.56934 v 18.82617 q 0,2.44043 -1.11231,4.00098 -1.1123,1.56055 -3.00488,2.30762 -1.89258,0.76367 -4.2666,0.76367 z m -0.0332,-10.6582 q 2.32421,0 3.55273,-1.61035 1.24512,-1.61036 1.24512,-4.46582 0,-2.78907 -1.22852,-4.53223 -1.21191,-1.75977 -3.56933,-1.75977 -1.61036,0 -2.70606,0.84668 -1.0791,0.83008 -1.62695,2.25782 -0.53125,1.41113 -0.53125,3.1875 0,2.72265 1.22851,4.39941 1.24512,1.67676 3.63575,1.67676 z M 68.88867,700 v -18.56055 h 3.65234 V 700 Z m 1.84277,-21.39941 q -0.94629,0 -1.62695,-0.63086 -0.66406,-0.63086 -0.66406,-1.52735 0,-0.91308 0.66406,-1.54394 0.68066,-0.63086 1.62695,-0.63086 0.94629,0 1.62696,0.63086 0.68066,0.63086 0.68066,1.54394 0,0.89649 -0.68066,1.52735 -0.68067,0.63086 -1.62696,0.63086 z m 19.65918,2.83886 v 2.97168 h -3.70214 v 10.5752 q 0,1.1123 0.46484,1.64355 0.48144,0.51465 1.56055,0.51465 0.29882,0 0.74707,-0.0664 0.46484,-0.0664 0.79687,-0.13281 l 0.64746,2.92188 q -0.58105,0.19922 -1.26172,0.28222 -0.66406,0.0996 -1.29492,0.0996 -2.52344,0 -3.91797,-1.29492 -1.39453,-1.31152 -1.39453,-3.66894 v -10.87403 h -2.70605 v -2.97168 h 2.70605 v -4.41601 h 3.65235 v 4.41601 z m 13.99805,18.97559 q -1.77637,0 -3.2041,-0.64746 -1.41113,-0.66406 -2.24121,-1.92578 -0.83008,-1.26172 -0.83008,-3.08789 0,-1.57715 0.61426,-2.58985 0.61426,-1.02929 1.64355,-1.61035 1.0293,-0.59766 2.29102,-0.89648 1.27832,-0.29883 2.58984,-0.44825 2.45703,-0.28222 3.56934,-0.48144 1.1123,-0.21582 1.1123,-1.19531 v -0.0996 q 0,-1.54395 -0.91308,-2.39063 -0.89649,-0.86328 -2.63965,-0.86328 -1.82617,0 -2.87207,0.79688 -1.0459,0.79687 -1.42774,1.74316 l -3.43652,-0.89648 q 0.63086,-1.66016 1.80957,-2.67286 1.17871,-1.01269 2.68945,-1.47754 1.52735,-0.46484 3.1875,-0.46484 1.11231,0 2.37403,0.26563 1.26172,0.26562 2.37402,0.96289 1.1123,0.68066 1.80957,1.95898 0.69727,1.27832 0.69727,3.28711 V 700 h -3.53614 v -2.54004 h -0.18261 q -0.54786,1.0957 -1.89258,2.02539 -1.32813,0.92969 -3.58594,0.92969 z m 0.81348,-2.93848 q 1.47754,0 2.54004,-0.58105 1.0625,-0.59766 1.62695,-1.54395 0.58105,-0.94629 0.58105,-2.04199 v -2.37402 q -0.26562,0.26562 -1.1455,0.46484 -0.86329,0.18262 -1.82618,0.31543 -0.96289,0.13281 -1.52734,0.19922 -1.54394,0.21582 -2.65625,0.84668 -1.0957,0.61426 -1.0957,2.04199 0,1.32813 0.97949,2.00879 0.99609,0.66406 2.52344,0.66406 z m 21.95019,-22.21289 V 700 H 123.5 v -24.73633 z m 32.56153,25.15137 q -4.167,0 -6.64063,-1.94238 -2.47363,-1.95899 -2.63965,-5.34571 h 3.80176 q 0.16602,2.02539 1.74316,3.00489 1.57715,0.96289 3.71875,0.96289 2.35743,0 3.90137,-1.09571 1.54395,-1.0957 1.54395,-2.88867 0,-1.61035 -1.36133,-2.39062 -1.34473,-0.79688 -3.33692,-1.32813 l -2.88867,-0.79687 q -3.03808,-0.81348 -4.74804,-2.40723 -1.69336,-1.59375 -1.69336,-4.13379 0,-2.1416 1.1455,-3.73535 1.16211,-1.61035 3.1377,-2.49024 1.99219,-0.89648 4.48242,-0.89648 2.54004,0 4.46582,0.89648 1.94238,0.87989 3.03809,2.44043 1.1123,1.54395 1.16211,3.50293 h -3.68555 q -0.18262,-1.69336 -1.57715,-2.62304 -1.37793,-0.92969 -3.48633,-0.92969 -2.24121,0 -3.56933,1.0293 -1.32813,1.01269 -1.32813,2.58984 0,1.17871 0.71387,1.90918 0.71387,0.71387 1.74316,1.14551 1.0459,0.41504 1.99219,0.66406 l 2.40723,0.63086 q 1.17871,0.29883 2.42383,0.81348 1.26171,0.49804 2.32421,1.31152 1.0625,0.79687 1.70997,1.99219 0.66406,1.17871 0.66406,2.85547 0,2.09179 -1.0791,3.73535 -1.0791,1.64355 -3.1377,2.58984 -2.04199,0.92969 -4.94726,0.92969 z m 18.13183,6.25879 0.89649,-2.97168 0.41504,0.0996 q 1.41113,0.38183 2.39062,-0.0996 0.99609,-0.46485 1.51074,-2.25781 l 0.39844,-1.36133 -7.05566,-18.64356 h 3.95117 l 3.66894,10.542 q 0.41504,1.22851 0.73047,2.42382 0.31543,1.19532 0.61426,2.39063 0.31543,-1.19531 0.64746,-2.39063 0.33203,-1.21191 0.76367,-2.42382 l 3.73535,-10.542 h 3.91797 l -8.06836,21.13379 q -0.84668,2.22461 -2.29101,3.35352 -1.42774,1.14551 -3.66895,1.14551 -0.86328,0 -1.54394,-0.13282 -0.66407,-0.11621 -1.0127,-0.26562 z m 31.46289,-6.29199 q -3.02148,0 -5.01367,-1.29493 -1.97559,-1.31152 -2.47363,-3.78515 l 3.43652,-0.71387 q 0.74707,2.83887 4.08399,2.83887 1.77636,0 2.80566,-0.73047 1.0459,-0.74707 1.0459,-1.77637 0,-1.75976 -2.60645,-2.34082 l -3.12109,-0.71387 q -5.11328,-1.1455 -5.11328,-5.12988 0,-1.66015 0.91308,-2.90527 0.92969,-1.24512 2.54004,-1.92578 1.62696,-0.69727 3.73535,-0.69727 3.00489,0 4.71485,1.29492 1.70996,1.27832 2.30762,3.33692 l -3.27051,0.71386 q -0.34864,-0.97949 -1.21192,-1.70996 -0.86328,-0.74707 -2.50683,-0.74707 -1.51074,0 -2.52344,0.68067 -1.0127,0.68066 -1.0127,1.72656 0,0.92969 0.66407,1.51074 0.68066,0.56445 2.208,0.91309 l 2.98829,0.66406 q 5.06347,1.14551 5.06347,5.01367 0,1.69336 -0.97949,3.00488 -0.96289,1.29493 -2.68945,2.042 -1.72657,0.73047 -3.98438,0.73047 z m 24.58985,-18.94239 v 2.97168 h -3.70215 v 10.5752 q 0,1.1123 0.46484,1.64355 0.48145,0.51465 1.56055,0.51465 0.29883,0 0.74707,-0.0664 0.46484,-0.0664 0.79687,-0.13281 l 0.64746,2.92188 q -0.58105,0.19922 -1.26171,0.28222 -0.66407,0.0996 -1.29493,0.0996 -2.52343,0 -3.91796,-1.29492 -1.39454,-1.31152 -1.39454,-3.66894 v -10.87403 h -2.70605 v -2.97168 h 2.70605 v -4.41601 h 3.65235 v 4.41601 z m 16.30566,18.94239 q -2.73926,0 -4.73145,-1.17872 -1.99218,-1.17871 -3.07128,-3.32031 -1.0625,-2.1416 -1.0625,-5.03027 0,-2.85547 1.04589,-5.03027 1.0625,-2.17481 2.98829,-3.38672 1.92578,-1.22852 4.51562,-1.22852 2.1084,0 4.00098,0.94629 1.90918,0.92969 3.08789,2.98828 1.19531,2.04199 1.19531,5.39551 v 1.29492 h -13.16504 q 0.0996,2.68945 1.52734,4.11719 1.42774,1.41113 3.70215,1.41113 1.52735,0 2.62305,-0.66406 1.1123,-0.66406 1.59375,-1.95899 l 3.43652,0.81348 q -0.66406,2.17481 -2.68945,3.50293 -2.02539,1.32813 -4.99707,1.32813 z m -5.17969,-11.27247 h 9.5293 q -0.19922,-2.1914 -1.37793,-3.53613 -1.16211,-1.34472 -3.27051,-1.34472 -2.1914,0 -3.46972,1.44433 -1.26172,1.42774 -1.41114,3.43652 z M 267.17383,700 v -18.56055 h 3.46972 l 0.083,3.46973 q 0.71387,-1.92578 2.1416,-2.85547 1.42774,-0.92969 3.08789,-0.92969 1.80957,0 3.00489,1.0293 1.19531,1.0293 1.74316,2.87207 0.69727,-1.87598 2.29102,-2.88867 1.61035,-1.0127 3.58593,-1.0127 1.64356,0 2.97168,0.71387 1.32813,0.71387 2.1084,2.125 0.79688,1.41113 0.79688,3.51953 V 700 h -3.65235 v -12.15234 q 0,-1.85938 -1.0459,-2.68946 -1.02929,-0.83008 -2.44043,-0.83008 -1.72656,0 -2.72265,1.0625 -0.97949,1.0625 -0.97949,2.72266 V 700 h -3.60254 v -12.38477 q 0,-1.49414 -0.96289,-2.39062 -0.94629,-0.89649 -2.42383,-0.89649 -1.52735,0 -2.67285,1.0625 -1.12891,1.0459 -1.12891,3.07129 V 700 Z m 41.85547,0.38184 q -3.02149,0 -5.01368,-1.29493 -1.97558,-1.31152 -2.47363,-3.78515 l 3.43652,-0.71387 q 0.74707,2.83887 4.08399,2.83887 1.77637,0 2.80566,-0.73047 1.0459,-0.74707 1.0459,-1.77637 0,-1.75976 -2.60644,-2.34082 l -3.1211,-0.71387 q -5.11328,-1.1455 -5.11328,-5.12988 0,-1.66015 0.91309,-2.90527 0.92968,-1.24512 2.54004,-1.92578 1.62695,-0.69727 3.73535,-0.69727 3.00488,0 4.71484,1.29492 1.70996,1.27832 2.30762,3.33692 l -3.27051,0.71386 q -0.34863,-0.97949 -1.21191,-1.70996 -0.86328,-0.74707 -2.50684,-0.74707 -1.51074,0 -2.52344,0.68067 -1.01269,0.68066 -1.01269,1.72656 0,0.92969 0.66406,1.51074 0.68066,0.56445 2.20801,0.91309 l 2.98828,0.66406 q 5.06348,1.14551 5.06348,5.01367 0,1.69336 -0.9795,3.00488 -0.96289,1.29493 -2.68945,2.042 -1.72656,0.73047 -3.98437,0.73047 z m 19.36035,-0.13282 q -1.0293,0 -1.74317,-0.69726 -0.71386,-0.71387 -0.71386,-1.74317 0,-1.02929 0.71386,-1.74316 0.71387,-0.71387 1.74317,-0.71387 1.02929,0 1.72656,0.71387 0.71387,0.71387 0.71387,1.74316 0,1.0293 -0.71387,1.74317 -0.69727,0.69726 -1.72656,0.69726 z M 354.99121,700 v -24.73633 h 8.86523 q 2.85547,0 4.76465,0.9961 1.90918,0.99609 2.85547,2.75585 0.94629,1.74317 0.94629,4.01758 0,2.49024 -1.12891,4.31641 -1.1289,1.80957 -3.38671,2.65625 L 373.35254,700 h -4.29981 l -5.01367,-9.34668 q -0.0996,0 -0.21582,0 h -5.04687 V 700 Z m 3.78516,-12.58398 h 4.68164 q 2.72265,0 3.91797,-1.14551 1.21191,-1.16211 1.21191,-3.23731 0,-2.09179 -1.21191,-3.30371 -1.21192,-1.22851 -3.95118,-1.22851 h -4.64843 z m 30.5,12.96582 q -2.73926,0 -4.73145,-1.17872 -1.99219,-1.17871 -3.07129,-3.32031 -1.0625,-2.1416 -1.0625,-5.03027 0,-2.85547 1.0459,-5.03027 1.0625,-2.17481 2.98828,-3.38672 1.92578,-1.22852 4.51563,-1.22852 2.10839,0 4.00097,0.94629 1.90918,0.92969 3.08789,2.98828 1.19532,2.04199 1.19532,5.39551 v 1.29492 h -13.16504 q 0.0996,2.68945 1.52734,4.11719 1.42773,1.41113 3.70215,1.41113 1.52734,0 2.62305,-0.66406 1.1123,-0.66406 1.59375,-1.95899 l 3.43652,0.81348 q -0.66406,2.17481 -2.68945,3.50293 -2.02539,1.32813 -4.99707,1.32813 z m -5.17969,-11.27247 h 9.5293 q -0.19922,-2.1914 -1.37793,-3.53613 -1.16211,-1.34472 -3.27051,-1.34472 -2.19141,0 -3.46973,1.44433 -1.26172,1.42774 -1.41113,3.43652 z m 27.67773,11.30567 q -1.77636,0 -3.2041,-0.64746 -1.41113,-0.66406 -2.24121,-1.92578 -0.83008,-1.26172 -0.83008,-3.08789 0,-1.57715 0.61426,-2.58985 0.61426,-1.02929 1.64355,-1.61035 1.0293,-0.59766 2.29102,-0.89648 1.27832,-0.29883 2.58984,-0.44825 2.45704,-0.28222 3.56934,-0.48144 1.1123,-0.21582 1.1123,-1.19531 v -0.0996 q 0,-1.54395 -0.91308,-2.39063 -0.89649,-0.86328 -2.63965,-0.86328 -1.82617,0 -2.87207,0.79688 -1.0459,0.79687 -1.42773,1.74316 l -3.43653,-0.89648 q 0.63086,-1.66016 1.80957,-2.67286 1.17871,-1.01269 2.68946,-1.47754 1.52734,-0.46484 3.1875,-0.46484 1.1123,0 2.37402,0.26563 1.26172,0.26562 2.37402,0.96289 1.11231,0.68066 1.80957,1.95898 0.69727,1.27832 0.69727,3.28711 V 700 h -3.53613 v -2.54004 h -0.18262 q -0.54785,1.0957 -1.89258,2.02539 -1.32812,0.92969 -3.58594,0.92969 z m 0.81348,-2.93848 q 1.47754,0 2.54004,-0.58105 1.0625,-0.59766 1.62695,-1.54395 0.58106,-0.94629 0.58106,-2.04199 v -2.37402 q -0.26563,0.26562 -1.14551,0.46484 -0.86328,0.18262 -1.82617,0.31543 -0.96289,0.13281 -1.52735,0.19922 -1.54394,0.21582 -2.65625,0.84668 -1.0957,0.61426 -1.0957,2.04199 0,1.32813 0.97949,2.00879 0.9961,0.66406 2.52344,0.66406 z m 21.95019,-22.21289 V 700 h -3.65234 v -24.73633 z m 28.0459,0 V 700 h -3.78515 V 675.26367 Z M 472.78027,700 V 681.43945 H 476.25 l 0.083,3.46973 q 0.71386,-1.92578 2.1416,-2.85547 1.42773,-0.92969 3.08789,-0.92969 1.80957,0 3.00488,1.0293 1.19531,1.0293 1.74317,2.87207 0.69726,-1.87598 2.29101,-2.88867 1.61035,-1.0127 3.58594,-1.0127 1.64355,0 2.97168,0.71387 1.32812,0.71387 2.1084,2.125 0.79687,1.41113 0.79687,3.51953 V 700 h -3.65234 v -12.15234 q 0,-1.85938 -1.0459,-2.68946 -1.0293,-0.83008 -2.44043,-0.83008 -1.72656,0 -2.72266,1.0625 -0.97949,1.0625 -0.97949,2.72266 V 700 h -3.60254 v -12.38477 q 0,-1.49414 -0.96289,-2.39062 -0.94629,-0.89649 -2.42383,-0.89649 -1.52734,0 -2.67285,1.0625 -1.1289,1.0459 -1.1289,3.07129 V 700 Z m 35.19824,6.93945 v -25.5 h 3.55274 v 3.02149 h 0.29883 q 0.31543,-0.56446 0.89648,-1.32813 0.59766,-0.78027 1.66016,-1.34472 1.0625,-0.58106 2.80566,-0.58106 2.22461,0 3.96777,1.12891 1.75977,1.1289 2.77247,3.27051 1.01269,2.1416 1.01269,5.16308 0,2.98828 -0.99609,5.14649 -0.9961,2.1582 -2.75586,3.30371 -1.74317,1.1455 -4.00098,1.1455 -1.69336,0 -2.75586,-0.56445 -1.0625,-0.58105 -1.67676,-1.34473 -0.59765,-0.76367 -0.92968,-1.36132 h -0.19922 v 9.84472 z m 8.40039,-9.67871 q 1.59375,0 2.65625,-0.86328 1.07911,-0.86328 1.62696,-2.34082 0.54785,-1.47754 0.54785,-3.32031 0,-1.82617 -0.54785,-3.27051 -0.53125,-1.46094 -1.61035,-2.30762 -1.0625,-0.84668 -2.67286,-0.84668 -2.35742,0 -3.58593,1.77637 -1.22852,1.75977 -1.22852,4.64844 0,2.90527 1.24512,4.71484 1.24512,1.80957 3.56933,1.80957 z m 23.14551,3.1543 q -1.77636,0 -3.2041,-0.64746 -1.41113,-0.66406 -2.24121,-1.92578 -0.83008,-1.26172 -0.83008,-3.08789 0,-1.57715 0.61426,-2.58985 0.61426,-1.02929 1.64355,-1.61035 1.0293,-0.59766 2.29102,-0.89648 1.27832,-0.29883 2.58984,-0.44825 2.45704,-0.28222 3.56934,-0.48144 1.1123,-0.21582 1.1123,-1.19531 v -0.0996 q 0,-1.54395 -0.91308,-2.39063 -0.89649,-0.86328 -2.63965,-0.86328 -1.82617,0 -2.87207,0.79688 -1.0459,0.79687 -1.42773,1.74316 l -3.43653,-0.89648 q 0.63086,-1.66016 1.80957,-2.67286 1.17871,-1.01269 2.68946,-1.47754 1.52734,-0.46484 3.1875,-0.46484 1.1123,0 2.37402,0.26563 1.26172,0.26562 2.37402,0.96289 1.11231,0.68066 1.80957,1.95898 0.69727,1.27832 0.69727,3.28711 V 700 h -3.53613 v -2.54004 h -0.18262 q -0.54785,1.0957 -1.89258,2.02539 -1.32812,0.92969 -3.58594,0.92969 z m 0.81348,-2.93848 q 1.47754,0 2.54004,-0.58105 1.0625,-0.59766 1.62695,-1.54395 0.58106,-0.94629 0.58106,-2.04199 v -2.37402 q -0.26563,0.26562 -1.14551,0.46484 -0.86328,0.18262 -1.82617,0.31543 -0.96289,0.13281 -1.52735,0.19922 -1.54394,0.21582 -2.65625,0.84668 -1.0957,0.61426 -1.0957,2.04199 0,1.32813 0.97949,2.00879 0.9961,0.66406 2.52344,0.66406 z m 26.10059,2.90528 q -2.62305,0 -4.56543,-1.19532 -1.94239,-1.19531 -3.02149,-3.33691 -1.0791,-2.1582 -1.0791,-5.03027 0,-2.88868 1.0791,-5.04688 1.0791,-2.1748 3.02149,-3.37012 1.94238,-1.19531 4.56543,-1.19531 2.88867,0 4.98046,1.46094 2.1084,1.44433 2.78907,4.01758 l -3.46973,0.83007 q -0.38184,-1.44433 -1.49414,-2.32421 -1.0957,-0.89649 -2.78906,-0.89649 -1.67676,0 -2.78907,0.87988 -1.0957,0.87989 -1.64355,2.37403 -0.53125,1.47754 -0.53125,3.27051 0,1.77636 0.53125,3.2539 0.54785,1.46094 1.64355,2.34082 1.11231,0.87989 2.78907,0.87989 1.72656,0 2.85547,-0.91309 1.1289,-0.92969 1.49414,-2.44043 l 3.45312,0.83008 q -0.68066,2.62304 -2.78906,4.11719 -2.1084,1.49414 -5.03027,1.49414 z m 24.75585,-18.94239 v 2.97168 h -3.70214 v 10.5752 q 0,1.1123 0.46484,1.64355 0.48145,0.51465 1.56055,0.51465 0.29882,0 0.74707,-0.0664 0.46484,-0.0664 0.79687,-0.13281 l 0.64746,2.92188 q -0.58105,0.19922 -1.26172,0.28222 -0.66406,0.0996 -1.29492,0.0996 -2.52344,0 -3.91797,-1.29492 -1.39453,-1.31152 -1.39453,-3.66894 v -10.87403 h -2.70605 v -2.97168 h 2.70605 v -4.41601 h 3.65235 v 4.41601 z m 11.3418,18.80957 q -1.0293,0 -1.74316,-0.69726 -0.71387,-0.71387 -0.71387,-1.74317 0,-1.02929 0.71387,-1.74316 0.71386,-0.71387 1.74316,-0.71387 1.0293,0 1.72656,0.71387 0.71387,0.71387 0.71387,1.74316 0,1.0293 -0.71387,1.74317 -0.69726,0.69726 -1.72656,0.69726 z"
     id="text11"
     style="font-weight:500;font-size:34px;font-family:Inter;letter-spacing:5;text-anchor:middle;opacity:0.7744;fill:#1f2933"
     aria-label="Digital Systems. Real Impact." />
</svg>
